<svg width="512" height="512" viewBox="0 0 512 512" fill="none" xmlns="http://www.w3.org/2000/svg">
<g id="Type=Nodemon-regular">
<g id="Technologies/Nodemon/Regular" clip-path="url(#clip0_336_349)">
<g id="nodemon-regular">
<path id="Shape" fill-rule="evenodd" clip-rule="evenodd" d="M244.1 501.189C251.392 505.404 260.387 505.404 267.678 501.189L463.023 388.466C470.328 384.254 474.825 376.467 474.825 368.03V142.411C474.825 133.98 470.327 126.198 463.035 121.976L267.693 9.16168C260.387 4.94659 251.392 4.94659 244.087 9.16168L48.7964 121.976C41.4981 126.196 37 133.982 37 142.411V368.043C37 376.467 41.4981 384.252 48.8013 388.464L244.099 501.187" fill="#76D04B"/>
<path id="Shape_2" fill-rule="evenodd" clip-rule="evenodd" d="M382.378 201.396L373.667 196.382C387.063 176.624 395.068 146.917 385.03 102.504C385.03 102.504 362.425 165.858 316.983 163.759L263.775 133.14C261.768 131.949 259.519 131.336 257.246 131.242H256.019C253.75 131.337 251.505 131.951 249.47 133.14L196.257 163.759C150.82 165.864 128.207 102.504 128.207 102.504C118.164 146.915 126.182 176.622 139.575 196.382L130.865 201.397C126.441 203.947 123.689 208.682 123.689 213.848L123.951 397.635C123.951 400.2 125.279 402.575 127.53 403.823C129.728 405.151 132.45 405.151 134.645 403.823L205.132 363.461C209.593 360.812 212.304 356.139 212.304 351.03V265.17C212.304 260.05 215.016 255.304 219.457 252.767L249.472 235.483C251.707 234.181 254.154 233.548 256.652 233.548C259.094 233.548 261.605 234.181 263.779 235.481L293.783 252.765C298.226 255.3 300.947 260.049 300.947 265.167V351.027C300.947 356.135 303.695 360.844 308.128 363.458L378.597 403.82C380.808 405.145 383.569 405.145 385.761 403.82C387.945 402.572 389.319 400.195 389.319 397.63L389.548 213.843C389.543 208.674 386.832 203.939 382.38 201.392L382.378 201.396Z" fill="#4F4D3F"/>
</g>
</g>
</g>
<defs>
<clipPath id="clip0_336_349">
<rect width="439" height="500" fill="white" transform="translate(37 6)"/>
</clipPath>
</defs>
</svg>
